<?xml version="1.0" encoding="UTF-8" standalone="no"?>
<!-- Created with Inkscape (http://www.inkscape.org/) -->

<svg
   xmlns:dc="http://purl.org/dc/elements/1.1/"
   xmlns:cc="http://creativecommons.org/ns#"
   xmlns:rdf="http://www.w3.org/1999/02/22-rdf-syntax-ns#"
   xmlns:svg="http://www.w3.org/2000/svg"
   xmlns="http://www.w3.org/2000/svg"
   xmlns:sodipodi="http://sodipodi.sourceforge.net/DTD/sodipodi-0.dtd"
   xmlns:inkscape="http://www.inkscape.org/namespaces/inkscape"
   width="1340.7396"
   height="621.04041"
   id="svg2"
   version="1.1"
   inkscape:version="0.47 r22583"
   sodipodi:docname="camera.svg"
   style="display:inline">
  <defs
     id="defs4">
    <inkscape:perspective
       sodipodi:type="inkscape:persp3d"
       inkscape:vp_x="0 : 526.18109 : 1"
       inkscape:vp_y="0 : 1000 : 0"
       inkscape:vp_z="744.09448 : 526.18109 : 1"
       inkscape:persp3d-origin="372.04724 : 350.78739 : 1"
       id="perspective10" />
    <inkscape:perspective
       id="perspective2970"
       inkscape:persp3d-origin="0.5 : 0.33333333 : 1"
       inkscape:vp_z="1 : 0.5 : 1"
       inkscape:vp_y="0 : 1000 : 0"
       inkscape:vp_x="0 : 0.5 : 1"
       sodipodi:type="inkscape:persp3d" />
  </defs>
  <sodipodi:namedview
     id="base"
     pagecolor="#ffffff"
     bordercolor="#666666"
     borderopacity="1.0"
     inkscape:pageopacity="0.0"
     inkscape:pageshadow="2"
     inkscape:zoom="0.98303949"
     inkscape:cx="539.78023"
     inkscape:cy="346.12557"
     inkscape:document-units="px"
     inkscape:current-layer="layer1"
     showgrid="false"
     inkscape:window-width="1680"
     inkscape:window-height="976"
     inkscape:window-x="0"
     inkscape:window-y="25"
     inkscape:window-maximized="1" />
  <metadata
     id="metadata7">
    <rdf:RDF>
      <cc:Work
         rdf:about="">
        <dc:format>image/svg+xml</dc:format>
        <dc:type
           rdf:resource="http://purl.org/dc/dcmitype/StillImage" />
        <dc:title />
      </cc:Work>
    </rdf:RDF>
  </metadata>
  <g
     inkscape:label="Ebene 1"
     inkscape:groupmode="layer"
     id="layer1"
     transform="translate(1612.8882,119.75769)"
     style="display:inline">
    <path
       style="fill:none;stroke:#000000;stroke-width:0.99999988px;stroke-linecap:butt;stroke-linejoin:miter;stroke-opacity:1"
       d="m -1613.9034,273.44721 c 0,0 20.4877,-0.85757 36.6599,-5.05698 73.9681,-19.20719 153.6119,-162.40026 156.5329,-166.44932 33.8099,-47.305969 34.3037,-18.808465 77.2665,14.55842 62.0222,146.28004 -50.7763,102.15767 7.911,176.98808 97.6125,9.00954 72.4641,-230.769276 173.5011,-193.07057 62.685,39.32442 -62.5817,173.01941 18.9754,181.0545 56.3699,-16.98819 109.811,-13.05113 167.38455,-8.96265 74.45851,19.17524 229.69547,-281.8434605 161.37254,-351.239098 -92.05808,-93.503432 -176.85807,547.873798 -95.44044,528.128158 52.77339,-90.36499 -30.37972,-192.26036 88.01139,-187.6283 130.16585,-11.49583 128.82464,16.97929 182.38122,-26.3524 16.76885,-13.12379 40.32417,-14.85645 72.49603,31.93729 56.33299,38.94195 172.32985,-14.41616 137.19562,-147.49171 -8.13803,-30.82385 -128.7526,67.26406 -48.9889,177.47662 76.8281,106.15636 204.3472,-121.76006 205.4767,-123.00075"
       id="path2843"
       sodipodi:nodetypes="csccccccsccccsss" />
  </g>
</svg>
