<?xml version="1.0" encoding="UTF-8" standalone="no"?>
<!-- Created with Inkscape (http://www.inkscape.org/) -->

<svg
   xmlns:dc="http://purl.org/dc/elements/1.1/"
   xmlns:cc="http://creativecommons.org/ns#"
   xmlns:rdf="http://www.w3.org/1999/02/22-rdf-syntax-ns#"
   xmlns:svg="http://www.w3.org/2000/svg"
   xmlns="http://www.w3.org/2000/svg"
   xmlns:sodipodi="http://sodipodi.sourceforge.net/DTD/sodipodi-0.dtd"
   xmlns:inkscape="http://www.inkscape.org/namespaces/inkscape"
   width="1340.7396"
   height="621.04041"
   id="svg2"
   version="1.1"
   inkscape:version="0.47 r22583"
   sodipodi:docname="shuffle.svg">
  <defs
     id="defs4">
    <inkscape:perspective
       sodipodi:type="inkscape:persp3d"
       inkscape:vp_x="0 : 526.18109 : 1"
       inkscape:vp_y="0 : 1000 : 0"
       inkscape:vp_z="744.09448 : 526.18109 : 1"
       inkscape:persp3d-origin="372.04724 : 350.78739 : 1"
       id="perspective10" />
  </defs>
  <sodipodi:namedview
     id="base"
     pagecolor="#ffffff"
     bordercolor="#666666"
     borderopacity="1.0"
     inkscape:pageopacity="0.0"
     inkscape:pageshadow="2"
     inkscape:zoom="1.0041667"
     inkscape:cx="630.7705"
     inkscape:cy="309.4461"
     inkscape:document-units="px"
     inkscape:current-layer="layer1"
     showgrid="false"
     inkscape:window-width="1680"
     inkscape:window-height="976"
     inkscape:window-x="0"
     inkscape:window-y="25"
     inkscape:window-maximized="1" />
  <metadata
     id="metadata7">
    <rdf:RDF>
      <cc:Work
         rdf:about="">
        <dc:format>image/svg+xml</dc:format>
        <dc:type
           rdf:resource="http://purl.org/dc/dcmitype/StillImage" />
        <dc:title />
      </cc:Work>
    </rdf:RDF>
  </metadata>
  <g
     inkscape:label="Ebene 1"
     inkscape:groupmode="layer"
     id="layer1"
     transform="translate(1612.8882,119.75769)">
    <path
       style="fill:none;stroke:#000000;stroke-width:0.99999988px;stroke-linecap:butt;stroke-linejoin:miter;stroke-opacity:1"
       d="m -1612.3882,315.03633 c 0,0 1.5575,15.64332 65.5395,-17.00718 130.7824,-66.73931 179.1284,-248.985246 179.1284,-248.985246 0,0 -24.479,48.139854 24.7955,89.127536 56.7714,47.22383 24.8453,217.37436 -100.8177,186.14336 0,0 88.6433,-10.76716 110.699,0 95.737,46.73668 89.3597,-98.31103 94.6947,-142.00482 0,0 155.0272,-243.536757 57.9902,-284.74316 -90.7279,-38.52728 -77.3561,384.50535 -77.3561,384.50535 0,0 44.7064,-224.289505 107.3918,-184.965095 62.685,39.324425 -41.3456,170.405795 14.671,209.730215 56.0163,39.32441 81.357,-181.32924 81.357,-181.32924 0,0 -40.723,139.43416 -4.0011,174.77515 44.0015,42.30076 84.02478,-211.914875 84.02478,-211.914875 0,0 -55.09178,177.183755 -8.00231,218.468965 61.19447,53.65159 246.21087,-338.052249 178.66584,-408.20527 -116.47215,-120.96927 -123.9609,406.47562 -110.69923,535.24893 20.96617,203.58554 96.08158,-118.3049 26.72779,-161.99869 -69.35362,-43.69378 -0.78726,95.67881 65.3526,41.5091 64.01887,-52.43259 90.69338,-89.57229 90.69338,-89.57229 0,0 197.605,-260.997279 65.69043,-332.73696 -56.16461,-30.54425 -169.43652,618.03571 -102.75023,607.11226 66.68628,-10.92344 93.07625,-261.26715 14.38645,-230.6815 -78.68984,30.58563 72.02112,69.91007 134.70626,-41.5091 62.68513,-111.41917 282.80348,-323.982368 146.14092,-339.53 -51.86394,-5.90038 -159.47814,326.42186 -102.128,389.77785 57.35024,63.35602 146.35095,-17.99429 146.35095,-155.62974 0,-137.635431 -128.75261,67.26406 -48.98892,177.47662 76.82811,106.15636 204.34723,-121.76006 205.47671,-123.00075"
       id="path2843"
       sodipodi:nodetypes="cscssscscsscscssssscsssssssss" />
  </g>
</svg>
